<?xml version="1.0" encoding="UTF-8" standalone="no"?>
<!DOCTYPE svg PUBLIC "-//W3C//DTD SVG 1.1//EN"
 "http://www.w3.org/Graphics/SVG/1.1/DTD/svg11.dtd">
<!-- Generated by graphviz version 2.40.1 (20161225.0304)
 -->
<!-- Title: ACN44 Pages: 1 -->
<svg width="1084pt" height="1476pt"
 viewBox="0.00 0.00 1083.50 1476.00" xmlns="http://www.w3.org/2000/svg" xmlns:xlink="http://www.w3.org/1999/xlink">
<g id="graph0" class="graph" transform="scale(1 1) rotate(0) translate(4 1472)">
<title>ACN44</title>
<polygon fill="#ffffff" stroke="transparent" points="-4,4 -4,-1472 1079.5,-1472 1079.5,4 -4,4"/>
<g id="clust1" class="cluster">
<title>cluster_CN49</title>
<polygon fill="none" stroke="#000000" points="326.5,-8 326.5,-1369 760.5,-1369 760.5,-8 326.5,-8"/>
<text text-anchor="middle" x="543.5" y="-1353.8" font-family="Times,serif" font-size="14.00" fill="#000000">Address: rank=0 </text>
</g>
<!-- 45 -->
<g id="node1" class="node">
<title>45</title>
<path fill="none" stroke="#000000" d="M220.5,-1421C220.5,-1421 329.5,-1421 329.5,-1421 335.5,-1421 341.5,-1427 341.5,-1433 341.5,-1433 341.5,-1448 341.5,-1448 341.5,-1454 335.5,-1460 329.5,-1460 329.5,-1460 220.5,-1460 220.5,-1460 214.5,-1460 208.5,-1454 208.5,-1448 208.5,-1448 208.5,-1433 208.5,-1433 208.5,-1427 214.5,-1421 220.5,-1421"/>
<text text-anchor="start" x="221.5" y="-1436.8" font-family="Times,serif" font-size="14.00" fill="#000000">ActiveSendRequest</text>
<text text-anchor="start" x="345.5" y="-1403.8" font-family="Times,serif" font-size="14.00" fill="#000000">MessageToken</text>
<path fill="#e6e6e6" stroke="transparent" d="M265.5,-1398C265.5,-1398 284.5,-1398 284.5,-1398 288,-1398 291.5,-1401.5 291.5,-1405 291.5,-1405 291.5,-1412 291.5,-1412 291.5,-1415.5 288,-1419 284.5,-1419 284.5,-1419 265.5,-1419 265.5,-1419 262,-1419 258.5,-1415.5 258.5,-1412 258.5,-1412 258.5,-1405 258.5,-1405 258.5,-1401.5 262,-1398 265.5,-1398"/>
<path fill="none" stroke="#000000" d="M265.5,-1398C265.5,-1398 284.5,-1398 284.5,-1398 288,-1398 291.5,-1401.5 291.5,-1405 291.5,-1405 291.5,-1412 291.5,-1412 291.5,-1415.5 288,-1419 284.5,-1419 284.5,-1419 265.5,-1419 265.5,-1419 262,-1419 258.5,-1415.5 258.5,-1412 258.5,-1412 258.5,-1405 258.5,-1405 258.5,-1401.5 262,-1398 265.5,-1398"/>
<text text-anchor="start" x="261.5" y="-1404.8" font-family="Times,serif" font-size="14.00" fill="#000000">ASR</text>
</g>
<!-- 46 -->
<g id="node2" class="node">
<title>46</title>
<path fill="none" stroke="#000000" d="M784.5,-484C784.5,-484 910.5,-484 910.5,-484 916.5,-484 922.5,-490 922.5,-496 922.5,-496 922.5,-511 922.5,-511 922.5,-517 916.5,-523 910.5,-523 910.5,-523 784.5,-523 784.5,-523 778.5,-523 772.5,-517 772.5,-511 772.5,-511 772.5,-496 772.5,-496 772.5,-490 778.5,-484 784.5,-484"/>
<text text-anchor="start" x="785.5" y="-499.8" font-family="Times,serif" font-size="14.00" fill="#000000">ActiveReceiveRequest</text>
<text text-anchor="start" x="926.5" y="-466.8" font-family="Times,serif" font-size="14.00" fill="#000000">MessageRequest</text>
<path fill="#e6e6e6" stroke="transparent" d="M837.5,-461C837.5,-461 857.5,-461 857.5,-461 861,-461 864.5,-464.5 864.5,-468 864.5,-468 864.5,-475 864.5,-475 864.5,-478.5 861,-482 857.5,-482 857.5,-482 837.5,-482 837.5,-482 834,-482 830.5,-478.5 830.5,-475 830.5,-475 830.5,-468 830.5,-468 830.5,-464.5 834,-461 837.5,-461"/>
<path fill="none" stroke="#000000" d="M837.5,-461C837.5,-461 857.5,-461 857.5,-461 861,-461 864.5,-464.5 864.5,-468 864.5,-468 864.5,-475 864.5,-475 864.5,-478.5 861,-482 857.5,-482 857.5,-482 837.5,-482 837.5,-482 834,-482 830.5,-478.5 830.5,-475 830.5,-475 830.5,-468 830.5,-468 830.5,-464.5 834,-461 837.5,-461"/>
<text text-anchor="start" x="833.5" y="-467.8" font-family="Times,serif" font-size="14.00" fill="#000000">ARR</text>
</g>
<!-- 47 -->
<g id="node3" class="node">
<title>47</title>
<path fill="none" stroke="#000000" d="M618.5,-1421C618.5,-1421 751.5,-1421 751.5,-1421 757.5,-1421 763.5,-1427 763.5,-1433 763.5,-1433 763.5,-1448 763.5,-1448 763.5,-1454 757.5,-1460 751.5,-1460 751.5,-1460 618.5,-1460 618.5,-1460 612.5,-1460 606.5,-1454 606.5,-1448 606.5,-1448 606.5,-1433 606.5,-1433 606.5,-1427 612.5,-1421 618.5,-1421"/>
<text text-anchor="start" x="619.5" y="-1436.8" font-family="Times,serif" font-size="14.00" fill="#000000">CompletedSendRequest</text>
<text text-anchor="start" x="767.5" y="-1403.8" font-family="Times,serif" font-size="14.00" fill="#000000">MessageRequest</text>
<path fill="#e6e6e6" stroke="transparent" d="M675.5,-1398C675.5,-1398 693.5,-1398 693.5,-1398 697,-1398 700.5,-1401.5 700.5,-1405 700.5,-1405 700.5,-1412 700.5,-1412 700.5,-1415.5 697,-1419 693.5,-1419 693.5,-1419 675.5,-1419 675.5,-1419 672,-1419 668.5,-1415.5 668.5,-1412 668.5,-1412 668.5,-1405 668.5,-1405 668.5,-1401.5 672,-1398 675.5,-1398"/>
<path fill="none" stroke="#000000" d="M675.5,-1398C675.5,-1398 693.5,-1398 693.5,-1398 697,-1398 700.5,-1401.5 700.5,-1405 700.5,-1405 700.5,-1412 700.5,-1412 700.5,-1415.5 697,-1419 693.5,-1419 693.5,-1419 675.5,-1419 675.5,-1419 672,-1419 668.5,-1415.5 668.5,-1412 668.5,-1412 668.5,-1405 668.5,-1405 668.5,-1401.5 672,-1398 675.5,-1398"/>
<text text-anchor="start" x="671.5" y="-1404.8" font-family="Times,serif" font-size="14.00" fill="#000000">CSR</text>
</g>
<!-- 48 -->
<g id="node4" class="node">
<title>48</title>
<path fill="none" stroke="#000000" d="M14.5,-283C14.5,-283 164.5,-283 164.5,-283 170.5,-283 176.5,-289 176.5,-295 176.5,-295 176.5,-310 176.5,-310 176.5,-316 170.5,-322 164.5,-322 164.5,-322 14.5,-322 14.5,-322 8.5,-322 2.5,-316 2.5,-310 2.5,-310 2.5,-295 2.5,-295 2.5,-289 8.5,-283 14.5,-283"/>
<text text-anchor="start" x="15.5" y="-298.8" font-family="Times,serif" font-size="14.00" fill="#000000">CompletedReceiveRequest</text>
<text text-anchor="start" x="180.5" y="-265.8" font-family="Times,serif" font-size="14.00" fill="#000000">MessageToken</text>
<path fill="#e6e6e6" stroke="transparent" d="M79.5,-260C79.5,-260 99.5,-260 99.5,-260 103,-260 106.5,-263.5 106.5,-267 106.5,-267 106.5,-274 106.5,-274 106.5,-277.5 103,-281 99.5,-281 99.5,-281 79.5,-281 79.5,-281 76,-281 72.5,-277.5 72.5,-274 72.5,-274 72.5,-267 72.5,-267 72.5,-263.5 76,-260 79.5,-260"/>
<path fill="none" stroke="#000000" d="M79.5,-260C79.5,-260 99.5,-260 99.5,-260 103,-260 106.5,-263.5 106.5,-267 106.5,-267 106.5,-274 106.5,-274 106.5,-277.5 103,-281 99.5,-281 99.5,-281 79.5,-281 79.5,-281 76,-281 72.5,-277.5 72.5,-274 72.5,-274 72.5,-267 72.5,-267 72.5,-263.5 76,-260 79.5,-260"/>
<text text-anchor="start" x="75.5" y="-266.8" font-family="Times,serif" font-size="14.00" fill="#000000">CRR</text>
</g>
<!-- 40 -->
<g id="node14" class="node">
<title>40</title>
<polygon fill="none" stroke="#000000" points="345.5,-167.5 345.5,-204.5 404.5,-204.5 404.5,-167.5 345.5,-167.5"/>
<text text-anchor="start" x="356.5" y="-182.3" font-family="Times,serif" font-size="14.00" fill="#000000">wait37</text>
</g>
<!-- 48&#45;&gt;40 -->
<g id="edge13" class="edge">
<title>48:c&#45;&gt;40:c</title>
<path fill="none" stroke="#000000" stroke-width="1.2" d="M83.1849,-282.8146C79.0901,-265.3448 76.7646,-240.5138 90.5,-225 105.1592,-208.4427 236.0267,-196.3633 315.2363,-190.4939"/>
<polygon fill="#000000" stroke="#000000" stroke-width="1.2" points="335.5678,-192.5723 345.2975,-188.3792 335.0766,-185.5896 335.5678,-192.5723"/>
<polygon fill="none" stroke="#000000" stroke-width="1.2" points="335.5678,-192.5723 325.3468,-189.7827 335.0766,-185.5896 335.5678,-192.5723"/>
<polygon fill="none" stroke="#000000" stroke-width="1.2" points="315.6171,-193.9758 325.3468,-189.7827 315.1259,-186.9931 315.6171,-193.9758"/>
<text text-anchor="middle" x="210.5" y="-228.8" font-family="monospace" font-size="14.00" fill="#000000">{data=data, envelope={id=id}}</text>
</g>
<!-- 50 -->
<g id="node5" class="node">
<title>50</title>
<path fill="none" stroke="#000000" d="M465.5,-1412C465.5,-1412 541.5,-1412 541.5,-1412 547.5,-1412 553.5,-1418 553.5,-1424 553.5,-1424 553.5,-1439 553.5,-1439 553.5,-1445 547.5,-1451 541.5,-1451 541.5,-1451 465.5,-1451 465.5,-1451 459.5,-1451 453.5,-1445 453.5,-1439 453.5,-1439 453.5,-1424 453.5,-1424 453.5,-1418 459.5,-1412 465.5,-1412"/>
<text text-anchor="start" x="466.5" y="-1427.8" font-family="Times,serif" font-size="14.00" fill="#000000">ACN entry44</text>
<text text-anchor="start" x="557.5" y="-1411.8" font-family="Times,serif" font-size="14.00" fill="#000000">Unit</text>
</g>
<!-- 8 -->
<g id="node7" class="node">
<title>8</title>
<path fill="none" stroke="#000000" d="M485.5,-1290.5C485.5,-1290.5 522.5,-1290.5 522.5,-1290.5 528.5,-1290.5 534.5,-1296.5 534.5,-1302.5 534.5,-1302.5 534.5,-1317.5 534.5,-1317.5 534.5,-1323.5 528.5,-1329.5 522.5,-1329.5 522.5,-1329.5 485.5,-1329.5 485.5,-1329.5 479.5,-1329.5 473.5,-1323.5 473.5,-1317.5 473.5,-1317.5 473.5,-1302.5 473.5,-1302.5 473.5,-1296.5 479.5,-1290.5 485.5,-1290.5"/>
<text text-anchor="start" x="486.5" y="-1306.3" font-family="Times,serif" font-size="14.00" fill="#000000">entry7</text>
<text text-anchor="start" x="538.5" y="-1290.3" font-family="Times,serif" font-size="14.00" fill="#000000">Unit</text>
</g>
<!-- 50&#45;&gt;8 -->
<g id="edge14" class="edge">
<title>50:c&#45;&gt;8:c</title>
<path fill="none" stroke="#c0c0c0" stroke-width=".7" d="M503.5,-1411.748C503.5,-1392.4544 503.5,-1362.464 503.5,-1339.9436"/>
<polygon fill="#c0c0c0" stroke="#c0c0c0" stroke-width=".7" points="507.0001,-1339.8781 503.5,-1329.8781 500.0001,-1339.8781 507.0001,-1339.8781"/>
</g>
<!-- 51 -->
<g id="node6" class="node">
<title>51</title>
<path fill="none" stroke="#000000" d="M782.5,-947.5C782.5,-947.5 851.5,-947.5 851.5,-947.5 857.5,-947.5 863.5,-953.5 863.5,-959.5 863.5,-959.5 863.5,-974.5 863.5,-974.5 863.5,-980.5 857.5,-986.5 851.5,-986.5 851.5,-986.5 782.5,-986.5 782.5,-986.5 776.5,-986.5 770.5,-980.5 770.5,-974.5 770.5,-974.5 770.5,-959.5 770.5,-959.5 770.5,-953.5 776.5,-947.5 782.5,-947.5"/>
<text text-anchor="start" x="783.5" y="-963.3" font-family="Times,serif" font-size="14.00" fill="#000000">ACN exit44</text>
<text text-anchor="start" x="867.5" y="-947.3" font-family="Times,serif" font-size="14.00" fill="#000000">Unit</text>
</g>
<!-- 9 -->
<g id="node8" class="node">
<title>9</title>
<path fill="none" stroke="#000000" d="M507.5,-1160.5C507.5,-1160.5 570.5,-1160.5 570.5,-1160.5 576.5,-1160.5 582.5,-1166.5 582.5,-1172.5 582.5,-1172.5 582.5,-1187.5 582.5,-1187.5 582.5,-1193.5 576.5,-1199.5 570.5,-1199.5 570.5,-1199.5 507.5,-1199.5 507.5,-1199.5 501.5,-1199.5 495.5,-1193.5 495.5,-1187.5 495.5,-1187.5 495.5,-1172.5 495.5,-1172.5 495.5,-1166.5 501.5,-1160.5 507.5,-1160.5"/>
<text text-anchor="start" x="508.5" y="-1176.3" font-family="Times,serif" font-size="14.00" fill="#000000">test_loop 7</text>
<text text-anchor="start" x="586.5" y="-1160.3" font-family="Times,serif" font-size="14.00" fill="#000000">Bool</text>
</g>
<!-- 8&#45;&gt;9 -->
<g id="edge1" class="edge">
<title>8:c&#45;&gt;9:c</title>
<path fill="none" stroke="#c0c0c0" stroke-width=".7" d="M508.6644,-1290.3181C514.4135,-1268.964 523.7767,-1234.1866 530.4808,-1209.2855"/>
<polygon fill="#c0c0c0" stroke="#c0c0c0" stroke-width=".7" points="533.8639,-1210.1826 533.084,-1199.6165 527.1046,-1208.3627 533.8639,-1210.1826"/>
</g>
<!-- 16 -->
<g id="node15" class="node">
<title>16</title>
<polygon fill="none" stroke="#000000" points="527.5,-1040 527.5,-1062 549.5,-1062 549.5,-1040 527.5,-1040"/>
</g>
<!-- 9&#45;&gt;16 -->
<g id="edge2" class="edge">
<title>9:c&#45;&gt;16:c</title>
<path fill="none" stroke="#000000" stroke-width="1.2" d="M538.5,-1160.2623C538.5,-1136.5833 538.5,-1096.5123 538.5,-1072.0368"/>
<polygon fill="#000000" stroke="#000000" stroke-width="1.2" points="542.0001,-1072.0035 538.5,-1062.0036 535.0001,-1072.0036 542.0001,-1072.0035"/>
<text text-anchor="middle" x="555.5" y="-1104.8" font-family="monospace" font-size="14.00" fill="#000000">true</text>
</g>
<!-- 18 -->
<g id="node16" class="node">
<title>18</title>
<polygon fill="none" stroke="#000000" points="679.5,-1040 679.5,-1062 701.5,-1062 701.5,-1040 679.5,-1040"/>
</g>
<!-- 9&#45;&gt;18 -->
<g id="edge3" class="edge">
<title>9:c&#45;&gt;18:c</title>
<path fill="none" stroke="#000000" stroke-width="1.2" d="M561.2559,-1160.2623C591.2775,-1134.8822 643.5749,-1090.6702 671.5561,-1067.015"/>
<polygon fill="#000000" stroke="#000000" stroke-width="1.2" points="674.0306,-1069.5063 679.4077,-1060.3774 669.5113,-1064.1606 674.0306,-1069.5063"/>
<text text-anchor="middle" x="650.5" y="-1104.8" font-family="monospace" font-size="14.00" fill="#000000">false</text>
</g>
<!-- 30 -->
<g id="node9" class="node">
<title>30</title>
<path fill="none" stroke="#000000" d="M516.5,-855.5C516.5,-855.5 560.5,-855.5 560.5,-855.5 566.5,-855.5 572.5,-861.5 572.5,-867.5 572.5,-867.5 572.5,-882.5 572.5,-882.5 572.5,-888.5 566.5,-894.5 560.5,-894.5 560.5,-894.5 516.5,-894.5 516.5,-894.5 510.5,-894.5 504.5,-888.5 504.5,-882.5 504.5,-882.5 504.5,-867.5 504.5,-867.5 504.5,-861.5 510.5,-855.5 516.5,-855.5"/>
<text text-anchor="start" x="517.5" y="-871.3" font-family="Times,serif" font-size="14.00" fill="#000000">entry29</text>
<text text-anchor="start" x="576.5" y="-855.3" font-family="Times,serif" font-size="14.00" fill="#000000">Unit</text>
</g>
<!-- 32 -->
<g id="node10" class="node">
<title>32</title>
<path fill="none" stroke="#000000" d="M495.5,-725.5C495.5,-725.5 581.5,-725.5 581.5,-725.5 587.5,-725.5 593.5,-731.5 593.5,-737.5 593.5,-737.5 593.5,-752.5 593.5,-752.5 593.5,-758.5 587.5,-764.5 581.5,-764.5 581.5,-764.5 495.5,-764.5 495.5,-764.5 489.5,-764.5 483.5,-758.5 483.5,-752.5 483.5,-752.5 483.5,-737.5 483.5,-737.5 483.5,-731.5 489.5,-725.5 495.5,-725.5"/>
<text text-anchor="start" x="496.5" y="-741.3" font-family="Times,serif" font-size="14.00" fill="#000000">recv29_params</text>
<text text-anchor="start" x="597.5" y="-725.3" font-family="Times,serif" font-size="14.00" fill="#000000">i32</text>
</g>
<!-- 30&#45;&gt;32 -->
<g id="edge4" class="edge">
<title>30:c&#45;&gt;32:c</title>
<path fill="none" stroke="#c0c0c0" stroke-width=".7" d="M538.5,-855.3181C538.5,-834.0589 538.5,-799.4955 538.5,-774.6181"/>
<polygon fill="#c0c0c0" stroke="#c0c0c0" stroke-width=".7" points="542.0001,-774.6164 538.5,-764.6165 535.0001,-774.6165 542.0001,-774.6164"/>
</g>
<!-- 36 -->
<g id="node13" class="node">
<title>36</title>
<polygon fill="none" stroke="#000000" points="508.5,-589.5 508.5,-626.5 567.5,-626.5 567.5,-589.5 508.5,-589.5"/>
<text text-anchor="start" x="519.5" y="-604.3" font-family="Times,serif" font-size="14.00" fill="#000000">recv29</text>
</g>
<!-- 32&#45;&gt;36 -->
<g id="edge5" class="edge">
<title>32:c&#45;&gt;36:c</title>
<path fill="none" stroke="#000000" stroke-width="1.2" d="M538.5,-725.303C538.5,-702.2645 538.5,-663.4297 538.5,-636.9146"/>
<polygon fill="#000000" stroke="#000000" stroke-width="1.2" points="542.0001,-636.7301 538.5,-626.7302 535.0001,-636.7302 542.0001,-636.7301"/>
<text text-anchor="middle" x="551" y="-669.8" font-family="monospace" font-size="14.00" fill="#000000">src</text>
</g>
<!-- 33 -->
<g id="node11" class="node">
<title>33</title>
<path fill="none" stroke="#000000" d="M349.5,-23.5C349.5,-23.5 418.5,-23.5 418.5,-23.5 424.5,-23.5 430.5,-29.5 430.5,-35.5 430.5,-35.5 430.5,-50.5 430.5,-50.5 430.5,-56.5 424.5,-62.5 418.5,-62.5 418.5,-62.5 349.5,-62.5 349.5,-62.5 343.5,-62.5 337.5,-56.5 337.5,-50.5 337.5,-50.5 337.5,-35.5 337.5,-35.5 337.5,-29.5 343.5,-23.5 349.5,-23.5"/>
<text text-anchor="start" x="350.5" y="-39.3" font-family="Times,serif" font-size="14.00" fill="#000000">recv29_data</text>
<text text-anchor="start" x="434.5" y="-23.3" font-family="Times,serif" font-size="14.00" fill="#000000">DataPacket</text>
</g>
<!-- 34 -->
<g id="node12" class="node">
<title>34</title>
<path fill="none" stroke="#000000" d="M368.5,-374.5C368.5,-374.5 440.5,-374.5 440.5,-374.5 446.5,-374.5 452.5,-380.5 452.5,-386.5 452.5,-386.5 452.5,-401.5 452.5,-401.5 452.5,-407.5 446.5,-413.5 440.5,-413.5 440.5,-413.5 368.5,-413.5 368.5,-413.5 362.5,-413.5 356.5,-407.5 356.5,-401.5 356.5,-401.5 356.5,-386.5 356.5,-386.5 356.5,-380.5 362.5,-374.5 368.5,-374.5"/>
<text text-anchor="start" x="369.5" y="-390.3" font-family="Times,serif" font-size="14.00" fill="#000000">recv29_reqst</text>
<text text-anchor="start" x="456.5" y="-374.3" font-family="Times,serif" font-size="14.00" fill="#000000">(MPI_Request, MessageRequest)</text>
</g>
<!-- 34&#45;&gt;40 -->
<g id="edge6" class="edge">
<title>34:c&#45;&gt;40:c</title>
<path fill="none" stroke="#000000" stroke-width="1.2" d="M401.8237,-374.397C396.6919,-337.7666 385.4464,-257.4965 379.4496,-214.6918"/>
<polygon fill="#000000" stroke="#000000" stroke-width="1.2" points="382.8986,-214.0835 378.045,-204.6658 375.9663,-215.0547 382.8986,-214.0835"/>
<text text-anchor="middle" x="461" y="-290.3" font-family="monospace" font-size="14.00" fill="#000000">(reqst, {id=id})</text>
</g>
<!-- 36&#45;&gt;46 -->
<g id="edge8" class="edge">
<title>36:c&#45;&gt;46:c</title>
<path fill="none" stroke="#000000" stroke-width="1.2" d="M567.57,-598.6689C616.2561,-582.2038 715.4537,-548.6564 781.7178,-526.2467"/>
<polygon fill="#000000" stroke="#000000" stroke-width="1.2" points="782.894,-529.5438 791.2456,-523.0245 780.6514,-522.9127 782.894,-529.5438"/>
<text text-anchor="middle" x="893.5" y="-552.8" font-family="monospace" font-size="14.00" fill="#000000">{id=unique(id),src=src,tag=0,buffered=false}</text>
</g>
<!-- 36&#45;&gt;34 -->
<g id="edge7" class="edge">
<title>36:c&#45;&gt;34:c</title>
<path fill="none" stroke="#000000" stroke-width="1.2" d="M508.4454,-603.4271C471.1998,-595.3533 409.2606,-575.6622 381.5,-531 361.0669,-498.1266 375.1383,-452.6664 388.5785,-423.1738"/>
<polygon fill="#000000" stroke="#000000" stroke-width="1.2" points="391.8934,-424.3557 393.0616,-413.8254 385.5816,-421.3288 391.8934,-424.3557"/>
<text text-anchor="middle" x="571.5" y="-491.3" font-family="monospace" font-size="14.00" fill="#000000">{{id=unique(id),src=src,tag=0,buffered=false}}</text>
</g>
<!-- 40&#45;&gt;8 -->
<g id="edge9" class="edge">
<title>40:c&#45;&gt;8:c</title>
<path fill="none" stroke="#c0c0c0" stroke-width=".7" d="M364.1446,-204.7608C352.3188,-225.5568 335.5,-260.9439 335.5,-294 335.5,-1245.5 335.5,-1245.5 335.5,-1245.5 335.5,-1272.8017 413.9592,-1292.6773 463.6414,-1302.5262"/>
<polygon fill="#c0c0c0" stroke="#c0c0c0" stroke-width=".7" points="462.9835,-1305.9638 473.465,-1304.4182 464.3074,-1299.0901 462.9835,-1305.9638"/>
</g>
<!-- 40&#45;&gt;33 -->
<g id="edge10" class="edge">
<title>40:c&#45;&gt;33:c</title>
<path fill="none" stroke="#000000" stroke-width="1.2" d="M376.5623,-167.3779C377.904,-143.2273 380.2285,-101.3868 381.8139,-72.8501"/>
<polygon fill="#000000" stroke="#000000" stroke-width="1.2" points="385.3215,-72.8079 382.3817,-62.6291 378.3323,-72.4196 385.3215,-72.8079"/>
<text text-anchor="middle" x="396.5" y="-111.8" font-family="monospace" font-size="14.00" fill="#000000">data</text>
</g>
<!-- 16&#45;&gt;30 -->
<g id="edge11" class="edge">
<title>16:c&#45;&gt;30:c</title>
<path fill="none" stroke="#c0c0c0" stroke-width=".7" d="M538.5,-1039.9591C538.5,-1013.3438 538.5,-944.8923 538.5,-904.8657"/>
<polygon fill="#c0c0c0" stroke="#c0c0c0" stroke-width=".7" points="542.0001,-904.6272 538.5,-894.6273 535.0001,-904.6273 542.0001,-904.6272"/>
</g>
<!-- 18&#45;&gt;51 -->
<g id="edge12" class="edge">
<title>18:c&#45;&gt;51:c</title>
<path fill="none" stroke="#c0c0c0" stroke-width=".7" d="M701.6817,-1043.5012C718.6185,-1032.1427 751.5872,-1010.0328 777.8678,-992.4081"/>
<polygon fill="#c0c0c0" stroke="#c0c0c0" stroke-width=".7" points="780.1354,-995.1016 786.4912,-986.625 776.2365,-989.288 780.1354,-995.1016"/>
</g>
</g>
</svg>
