<?xml version="1.0" encoding="UTF-8" standalone="no"?>
<!DOCTYPE svg PUBLIC "-//W3C//DTD SVG 1.1//EN"
 "http://www.w3.org/Graphics/SVG/1.1/DTD/svg11.dtd">
<!-- Generated by graphviz version 2.40.1 (20161225.0304)
 -->
<!-- Title: ACN30 Pages: 1 -->
<svg width="1301pt" height="843pt"
 viewBox="0.00 0.00 1300.50 843.00" xmlns="http://www.w3.org/2000/svg" xmlns:xlink="http://www.w3.org/1999/xlink">
<g id="graph0" class="graph" transform="scale(1 1) rotate(0) translate(4 839)">
<title>ACN30</title>
<polygon fill="#ffffff" stroke="transparent" points="-4,4 -4,-839 1296.5,-839 1296.5,4 -4,4"/>
<g id="clust1" class="cluster">
<title>cluster_CN35</title>
<polygon fill="none" stroke="#000000" points="358.5,-84 358.5,-736 789.5,-736 789.5,-84 358.5,-84"/>
<text text-anchor="middle" x="574" y="-720.8" font-family="Times,serif" font-size="14.00" fill="#000000">Address: rank=1 </text>
</g>
<!-- 31 -->
<g id="node1" class="node">
<title>31</title>
<path fill="none" stroke="#000000" d="M813.5,-416C813.5,-416 922.5,-416 922.5,-416 928.5,-416 934.5,-422 934.5,-428 934.5,-428 934.5,-443 934.5,-443 934.5,-449 928.5,-455 922.5,-455 922.5,-455 813.5,-455 813.5,-455 807.5,-455 801.5,-449 801.5,-443 801.5,-443 801.5,-428 801.5,-428 801.5,-422 807.5,-416 813.5,-416"/>
<text text-anchor="start" x="814.5" y="-431.8" font-family="Times,serif" font-size="14.00" fill="#000000">ActiveSendRequest</text>
<text text-anchor="start" x="938.5" y="-398.8" font-family="Times,serif" font-size="14.00" fill="#000000">MessageToken</text>
<path fill="#e6e6e6" stroke="transparent" d="M858.5,-393C858.5,-393 877.5,-393 877.5,-393 881,-393 884.5,-396.5 884.5,-400 884.5,-400 884.5,-407 884.5,-407 884.5,-410.5 881,-414 877.5,-414 877.5,-414 858.5,-414 858.5,-414 855,-414 851.5,-410.5 851.5,-407 851.5,-407 851.5,-400 851.5,-400 851.5,-396.5 855,-393 858.5,-393"/>
<path fill="none" stroke="#000000" d="M858.5,-393C858.5,-393 877.5,-393 877.5,-393 881,-393 884.5,-396.5 884.5,-400 884.5,-400 884.5,-407 884.5,-407 884.5,-410.5 881,-414 877.5,-414 877.5,-414 858.5,-414 858.5,-414 855,-414 851.5,-410.5 851.5,-407 851.5,-407 851.5,-400 851.5,-400 851.5,-396.5 855,-393 858.5,-393"/>
<text text-anchor="start" x="854.5" y="-399.8" font-family="Times,serif" font-size="14.00" fill="#000000">ASR</text>
</g>
<!-- 32 -->
<g id="node2" class="node">
<title>32</title>
<path fill="none" stroke="#000000" d="M655.5,-788C655.5,-788 781.5,-788 781.5,-788 787.5,-788 793.5,-794 793.5,-800 793.5,-800 793.5,-815 793.5,-815 793.5,-821 787.5,-827 781.5,-827 781.5,-827 655.5,-827 655.5,-827 649.5,-827 643.5,-821 643.5,-815 643.5,-815 643.5,-800 643.5,-800 643.5,-794 649.5,-788 655.5,-788"/>
<text text-anchor="start" x="656.5" y="-803.8" font-family="Times,serif" font-size="14.00" fill="#000000">ActiveReceiveRequest</text>
<text text-anchor="start" x="797.5" y="-770.8" font-family="Times,serif" font-size="14.00" fill="#000000">MessageRequest</text>
<path fill="#e6e6e6" stroke="transparent" d="M708.5,-765C708.5,-765 728.5,-765 728.5,-765 732,-765 735.5,-768.5 735.5,-772 735.5,-772 735.5,-779 735.5,-779 735.5,-782.5 732,-786 728.5,-786 728.5,-786 708.5,-786 708.5,-786 705,-786 701.5,-782.5 701.5,-779 701.5,-779 701.5,-772 701.5,-772 701.5,-768.5 705,-765 708.5,-765"/>
<path fill="none" stroke="#000000" d="M708.5,-765C708.5,-765 728.5,-765 728.5,-765 732,-765 735.5,-768.5 735.5,-772 735.5,-772 735.5,-779 735.5,-779 735.5,-782.5 732,-786 728.5,-786 728.5,-786 708.5,-786 708.5,-786 705,-786 701.5,-782.5 701.5,-779 701.5,-779 701.5,-772 701.5,-772 701.5,-768.5 705,-765 708.5,-765"/>
<text text-anchor="start" x="704.5" y="-771.8" font-family="Times,serif" font-size="14.00" fill="#000000">ARR</text>
</g>
<!-- 33 -->
<g id="node3" class="node">
<title>33</title>
<path fill="none" stroke="#000000" d="M14.5,-215C14.5,-215 147.5,-215 147.5,-215 153.5,-215 159.5,-221 159.5,-227 159.5,-227 159.5,-242 159.5,-242 159.5,-248 153.5,-254 147.5,-254 147.5,-254 14.5,-254 14.5,-254 8.5,-254 2.5,-248 2.5,-242 2.5,-242 2.5,-227 2.5,-227 2.5,-221 8.5,-215 14.5,-215"/>
<text text-anchor="start" x="15.5" y="-230.8" font-family="Times,serif" font-size="14.00" fill="#000000">CompletedSendRequest</text>
<text text-anchor="start" x="163.5" y="-197.8" font-family="Times,serif" font-size="14.00" fill="#000000">MessageRequest</text>
<path fill="#e6e6e6" stroke="transparent" d="M71.5,-192C71.5,-192 89.5,-192 89.5,-192 93,-192 96.5,-195.5 96.5,-199 96.5,-199 96.5,-206 96.5,-206 96.5,-209.5 93,-213 89.5,-213 89.5,-213 71.5,-213 71.5,-213 68,-213 64.5,-209.5 64.5,-206 64.5,-206 64.5,-199 64.5,-199 64.5,-195.5 68,-192 71.5,-192"/>
<path fill="none" stroke="#000000" d="M71.5,-192C71.5,-192 89.5,-192 89.5,-192 93,-192 96.5,-195.5 96.5,-199 96.5,-199 96.5,-206 96.5,-206 96.5,-209.5 93,-213 89.5,-213 89.5,-213 71.5,-213 71.5,-213 68,-213 64.5,-209.5 64.5,-206 64.5,-206 64.5,-199 64.5,-199 64.5,-195.5 68,-192 71.5,-192"/>
<text text-anchor="start" x="67.5" y="-198.8" font-family="Times,serif" font-size="14.00" fill="#000000">CSR</text>
</g>
<!-- 26 -->
<g id="node10" class="node">
<title>26</title>
<polygon fill="none" stroke="#000000" points="378.5,-99.5 378.5,-136.5 437.5,-136.5 437.5,-99.5 378.5,-99.5"/>
<text text-anchor="start" x="389.5" y="-114.3" font-family="Times,serif" font-size="14.00" fill="#000000">wait23</text>
</g>
<!-- 33&#45;&gt;26 -->
<g id="edge6" class="edge">
<title>33:c&#45;&gt;26:c</title>
<path fill="none" stroke="#000000" stroke-width="1.2" stroke-dasharray="5,2" d="M74.1208,-214.7574C69.9839,-197.25 67.6327,-172.3959 81.5,-157 99.0108,-137.559 258.7314,-126.2335 348.2929,-121.3592"/>
<polygon fill="#000000" stroke="#000000" stroke-width="1.2" points="368.6778,-123.8216 378.486,-119.8156 368.3204,-116.8307 368.6778,-123.8216"/>
<polygon fill="none" stroke="#000000" stroke-width="1.2" points="368.6778,-123.8216 358.5121,-120.8368 368.3204,-116.8307 368.6778,-123.8216"/>
<polygon fill="none" stroke="#000000" stroke-width="1.2" points="348.7039,-124.8428 358.5121,-120.8368 348.3464,-117.8519 348.7039,-124.8428"/>
<text text-anchor="middle" x="247" y="-160.8" font-family="monospace" font-size="14.00" fill="#000000">[buffered] {data=data, envelope={id=id}}</text>
</g>
<!-- 34 -->
<g id="node4" class="node">
<title>34</title>
<path fill="none" stroke="#000000" d="M926.5,-788C926.5,-788 1076.5,-788 1076.5,-788 1082.5,-788 1088.5,-794 1088.5,-800 1088.5,-800 1088.5,-815 1088.5,-815 1088.5,-821 1082.5,-827 1076.5,-827 1076.5,-827 926.5,-827 926.5,-827 920.5,-827 914.5,-821 914.5,-815 914.5,-815 914.5,-800 914.5,-800 914.5,-794 920.5,-788 926.5,-788"/>
<text text-anchor="start" x="927.5" y="-803.8" font-family="Times,serif" font-size="14.00" fill="#000000">CompletedReceiveRequest</text>
<text text-anchor="start" x="1092.5" y="-770.8" font-family="Times,serif" font-size="14.00" fill="#000000">MessageToken</text>
<path fill="#e6e6e6" stroke="transparent" d="M991.5,-765C991.5,-765 1011.5,-765 1011.5,-765 1015,-765 1018.5,-768.5 1018.5,-772 1018.5,-772 1018.5,-779 1018.5,-779 1018.5,-782.5 1015,-786 1011.5,-786 1011.5,-786 991.5,-786 991.5,-786 988,-786 984.5,-782.5 984.5,-779 984.5,-779 984.5,-772 984.5,-772 984.5,-768.5 988,-765 991.5,-765"/>
<path fill="none" stroke="#000000" d="M991.5,-765C991.5,-765 1011.5,-765 1011.5,-765 1015,-765 1018.5,-768.5 1018.5,-772 1018.5,-772 1018.5,-779 1018.5,-779 1018.5,-782.5 1015,-786 1011.5,-786 1011.5,-786 991.5,-786 991.5,-786 988,-786 984.5,-782.5 984.5,-779 984.5,-779 984.5,-772 984.5,-772 984.5,-768.5 988,-765 991.5,-765"/>
<text text-anchor="start" x="987.5" y="-771.8" font-family="Times,serif" font-size="14.00" fill="#000000">CRR</text>
</g>
<!-- 36 -->
<g id="node5" class="node">
<title>36</title>
<path fill="none" stroke="#000000" d="M502.5,-779C502.5,-779 578.5,-779 578.5,-779 584.5,-779 590.5,-785 590.5,-791 590.5,-791 590.5,-806 590.5,-806 590.5,-812 584.5,-818 578.5,-818 578.5,-818 502.5,-818 502.5,-818 496.5,-818 490.5,-812 490.5,-806 490.5,-806 490.5,-791 490.5,-791 490.5,-785 496.5,-779 502.5,-779"/>
<text text-anchor="start" x="503.5" y="-794.8" font-family="Times,serif" font-size="14.00" fill="#000000">ACN entry30</text>
<text text-anchor="start" x="594.5" y="-778.8" font-family="Times,serif" font-size="14.00" fill="#000000">Unit</text>
</g>
<!-- 19 -->
<g id="node7" class="node">
<title>19</title>
<path fill="none" stroke="#000000" d="M497.5,-657.5C497.5,-657.5 584.5,-657.5 584.5,-657.5 590.5,-657.5 596.5,-663.5 596.5,-669.5 596.5,-669.5 596.5,-684.5 596.5,-684.5 596.5,-690.5 590.5,-696.5 584.5,-696.5 584.5,-696.5 497.5,-696.5 497.5,-696.5 491.5,-696.5 485.5,-690.5 485.5,-684.5 485.5,-684.5 485.5,-669.5 485.5,-669.5 485.5,-663.5 491.5,-657.5 497.5,-657.5"/>
<text text-anchor="start" x="498.5" y="-673.3" font-family="Times,serif" font-size="14.00" fill="#000000">send16_params</text>
<text text-anchor="start" x="600.5" y="-657.3" font-family="Times,serif" font-size="14.00" fill="#000000">DataPacket</text>
</g>
<!-- 36&#45;&gt;19 -->
<g id="edge7" class="edge">
<title>36:c&#45;&gt;19:c</title>
<path fill="none" stroke="#c0c0c0" stroke-width=".7" d="M540.5,-778.748C540.5,-759.4544 540.5,-729.464 540.5,-706.9436"/>
<polygon fill="#c0c0c0" stroke="#c0c0c0" stroke-width=".7" points="544.0001,-706.8781 540.5,-696.8781 537.0001,-706.8781 544.0001,-706.8781"/>
</g>
<!-- 37 -->
<g id="node6" class="node">
<title>37</title>
<path fill="none" stroke="#000000" d="M374.5,-7.5C374.5,-7.5 443.5,-7.5 443.5,-7.5 449.5,-7.5 455.5,-13.5 455.5,-19.5 455.5,-19.5 455.5,-34.5 455.5,-34.5 455.5,-40.5 449.5,-46.5 443.5,-46.5 443.5,-46.5 374.5,-46.5 374.5,-46.5 368.5,-46.5 362.5,-40.5 362.5,-34.5 362.5,-34.5 362.5,-19.5 362.5,-19.5 362.5,-13.5 368.5,-7.5 374.5,-7.5"/>
<text text-anchor="start" x="375.5" y="-23.3" font-family="Times,serif" font-size="14.00" fill="#000000">ACN exit30</text>
<text text-anchor="start" x="459.5" y="-7.3" font-family="Times,serif" font-size="14.00" fill="#000000">Unit</text>
</g>
<!-- 22 -->
<g id="node9" class="node">
<title>22</title>
<polygon fill="none" stroke="#000000" points="509.5,-521.5 509.5,-558.5 570.5,-558.5 570.5,-521.5 509.5,-521.5"/>
<text text-anchor="start" x="520.5" y="-536.3" font-family="Times,serif" font-size="14.00" fill="#000000">send16</text>
</g>
<!-- 19&#45;&gt;22 -->
<g id="edge1" class="edge">
<title>19:c&#45;&gt;22:c</title>
<path fill="none" stroke="#000000" stroke-width="1.2" d="M540.5,-657.303C540.5,-634.2645 540.5,-595.4297 540.5,-568.9146"/>
<polygon fill="#000000" stroke="#000000" stroke-width="1.2" points="544.0001,-568.7301 540.5,-558.7302 537.0001,-568.7302 544.0001,-568.7301"/>
<text text-anchor="middle" x="557.5" y="-601.8" font-family="monospace" font-size="14.00" fill="#000000">data</text>
</g>
<!-- 20 -->
<g id="node8" class="node">
<title>20</title>
<path fill="none" stroke="#000000" d="M380.5,-306.5C380.5,-306.5 454.5,-306.5 454.5,-306.5 460.5,-306.5 466.5,-312.5 466.5,-318.5 466.5,-318.5 466.5,-333.5 466.5,-333.5 466.5,-339.5 460.5,-345.5 454.5,-345.5 454.5,-345.5 380.5,-345.5 380.5,-345.5 374.5,-345.5 368.5,-339.5 368.5,-333.5 368.5,-333.5 368.5,-318.5 368.5,-318.5 368.5,-312.5 374.5,-306.5 380.5,-306.5"/>
<text text-anchor="start" x="381.5" y="-322.3" font-family="Times,serif" font-size="14.00" fill="#000000">send16_reqst</text>
<text text-anchor="start" x="470.5" y="-306.3" font-family="Times,serif" font-size="14.00" fill="#000000">(MPI_Request, MessageRequest)</text>
</g>
<!-- 20&#45;&gt;26 -->
<g id="edge2" class="edge">
<title>20:c&#45;&gt;26:c</title>
<path fill="none" stroke="#000000" stroke-width="1.2" d="M417.391,-306.2727C417.1097,-274.9618 416.103,-211.0227 412.5,-157 412.2809,-153.7145 411.9991,-150.2762 411.6867,-146.864"/>
<polygon fill="#000000" stroke="#000000" stroke-width="1.2" points="415.1665,-146.487 410.6894,-136.8846 408.2012,-147.1831 415.1665,-146.487"/>
<text text-anchor="middle" x="483" y="-222.3" font-family="monospace" font-size="14.00" fill="#000000">(reqst, {id=id})</text>
</g>
<!-- 22&#45;&gt;31 -->
<g id="edge4" class="edge">
<title>22:c&#45;&gt;31:c</title>
<path fill="none" stroke="#000000" stroke-width="1.2" d="M570.6512,-531.8219C618.2405,-517.9995 713.5774,-489.8009 793.5,-463 797.7727,-461.5672 802.1716,-460.0559 806.5934,-458.51"/>
<polygon fill="#000000" stroke="#000000" stroke-width="1.2" points="808.0092,-461.7218 816.2699,-455.0877 805.6751,-455.1224 808.0092,-461.7218"/>
<text text-anchor="middle" x="1011.5" y="-484.8" font-family="monospace" font-size="14.00" fill="#000000">{data=data, envelope={id=unique(id),dest=0,tag=0,buffered=buffered}}</text>
</g>
<!-- 22&#45;&gt;20 -->
<g id="edge3" class="edge">
<title>22:c&#45;&gt;20:c</title>
<path fill="none" stroke="#000000" stroke-width="1.2" d="M509.2067,-534.0349C474.02,-524.909 418.5362,-504.5019 393.5,-463 373.4824,-429.8173 387.8404,-384.4343 401.4373,-355.0431"/>
<polygon fill="#000000" stroke="#000000" stroke-width="1.2" points="404.7409,-356.253 405.9684,-345.7295 398.4463,-353.1906 404.7409,-356.253"/>
<text text-anchor="middle" x="592" y="-423.3" font-family="monospace" font-size="14.00" fill="#000000">{{id=unique(id),dest=0,tag=0,buffered=buffered}}</text>
</g>
<!-- 26&#45;&gt;37 -->
<g id="edge5" class="edge">
<title>26:c&#45;&gt;37:c</title>
<path fill="none" stroke="#c0c0c0" stroke-width=".7" d="M408.5,-99.4375C408.5,-87.1908 408.5,-71.011 408.5,-57.0025"/>
<polygon fill="#c0c0c0" stroke="#c0c0c0" stroke-width=".7" points="412.0001,-56.8143 408.5,-46.8144 405.0001,-56.8144 412.0001,-56.8143"/>
</g>
</g>
</svg>
